<?xml version="1.0" standalone="no"?>
<!DOCTYPE svg PUBLIC "-//W3C//DTD SVG 20010904//EN"
 "http://www.w3.org/TR/2001/REC-SVG-20010904/DTD/svg10.dtd">
<svg version="1.0" xmlns="http://www.w3.org/2000/svg"
 width="1243.000000pt" height="1243.000000pt" viewBox="0 0 1243.000000 1243.000000"
 preserveAspectRatio="xMidYMid meet">
<metadata>
Created by potrace 1.14, written by Peter Selinger 2001-2017
</metadata>
<g transform="translate(0.000000,1243.000000) scale(0.100000,-0.100000)"
fill="#000000" stroke="none">
<path d="M7597 11143 c-2 -1 -173 -5 -382 -8 -209 -4 -394 -7 -410 -9 -26 -2
-90 -45 -205 -139 -8 -7 -215 -169 -460 -360 -245 -191 -458 -357 -475 -371
l-29 -24 132 5 c130 4 131 4 137 -19 5 -21 39 -187 51 -246 3 -13 16 -76 30
-140 14 -64 28 -130 31 -147 2 -16 9 -48 15 -70 5 -22 12 -51 14 -65 2 -14 11
-54 19 -90 7 -36 19 -89 26 -118 l11 -54 45 99 c49 107 60 123 71 108 4 -6 49
-44 101 -84 61 -48 92 -67 89 -55 -3 10 -83 212 -177 448 -94 236 -169 431
-166 435 3 3 47 6 98 8 51 1 158 4 238 6 l147 5 -10 -32 c-5 -17 -11 -38 -13
-46 -1 -8 -8 -33 -13 -55 -17 -62 -22 -111 -23 -193 -3 -353 193 -675 506
-830 225 -112 470 -128 708 -48 272 93 483 306 576 583 22 66 26 85 40 198 32
264 -76 557 -274 744 -30 29 -55 55 -55 60 0 4 64 44 143 90 78 45 149 87 157
92 23 14 290 169 340 197 25 14 62 36 82 49 21 12 40 23 42 23 3 0 27 14 53
31 l48 30 -628 -3 c-346 -2 -629 -4 -630 -5z"/>
<path d="M11474 10427 c-53 -59 -454 -408 -589 -512 -21 -16 -64 -51 -94 -76
-31 -25 -114 -89 -186 -141 -71 -53 -141 -105 -155 -116 -14 -10 -113 -77
-220 -149 -510 -340 -997 -588 -1490 -761 -115 -40 -302 -101 -330 -107 -8 -2
-67 -17 -131 -34 -159 -41 -337 -77 -529 -106 -14 -2 -47 -6 -75 -10 -27 -3
-66 -8 -85 -10 -19 -2 -74 -7 -122 -11 -48 -3 -100 -7 -115 -9 -36 -5 -478 -5
-523 -1 -19 2 -73 7 -120 10 -125 9 -229 23 -395 51 -16 3 -46 8 -65 11 -118
19 -366 84 -575 151 -664 214 -1354 626 -1848 1103 -39 38 -73 68 -74 66 -2
-1 10 -29 25 -62 16 -32 40 -86 53 -119 13 -33 27 -61 32 -63 4 -2 7 -9 7 -16
0 -11 59 -149 122 -286 11 -25 42 -94 68 -155 51 -118 162 -370 185 -421 8
-16 29 -66 48 -110 19 -43 69 -158 112 -254 42 -96 127 -287 187 -425 61 -137
118 -268 128 -290 10 -22 42 -94 70 -160 50 -114 70 -159 110 -250 40 -88 215
-485 245 -555 18 -41 42 -95 53 -120 11 -25 44 -99 72 -165 29 -66 67 -151 84
-190 18 -38 52 -119 77 -178 l44 -108 40 6 c80 11 353 89 610 172 921 300
1831 793 2695 1462 74 57 146 115 160 127 l26 24 49 -19 c503 -185 870 -517
1034 -934 31 -78 40 -108 67 -226 40 -175 39 -413 -1 -642 -15 -88 -74 -303
-99 -361 -8 -18 -33 -78 -56 -133 -70 -167 -209 -418 -316 -571 -14 -20 -13
-20 46 -16 137 10 272 -42 374 -144 96 -95 141 -213 134 -345 -2 -38 -1 -69 2
-69 9 0 179 230 258 350 269 407 469 892 507 1235 4 33 11 82 15 108 8 54 6
334 -4 383 -3 17 -8 46 -10 65 -19 141 -70 307 -141 454 -235 487 -726 847
-1415 1037 -41 11 -99 25 -129 30 l-54 10 34 32 c19 17 54 48 79 70 225 194
712 678 945 940 6 6 44 49 85 96 41 47 77 87 80 90 31 30 233 278 433 530 125
157 519 720 567 809 12 23 2 28 -16 8z"/>
<path d="M0 6805 l0 -136 103 -202 c91 -178 193 -360 262 -467 47 -74 237
-357 271 -405 54 -75 137 -187 155 -210 9 -11 62 -76 117 -145 183 -229 374
-441 620 -688 l163 -164 -54 -111 c-116 -240 -216 -536 -242 -712 -3 -23 -8
-52 -10 -65 -27 -132 -27 -426 0 -595 12 -77 58 -241 91 -322 205 -509 638
-875 1293 -1093 230 -77 542 -142 796 -165 38 -4 78 -9 90 -11 112 -22 767
-22 965 0 19 2 69 7 110 11 41 3 84 8 95 10 11 2 47 7 80 10 33 4 74 8 90 10
65 10 291 45 315 50 14 2 36 7 50 10 14 2 39 7 55 10 17 2 73 14 125 25 52 12
106 23 120 26 148 28 551 141 815 228 177 59 518 185 610 226 22 10 69 30 105
45 205 85 698 324 737 356 10 9 -32 29 -189 88 -235 89 -232 88 -280 138 -64
66 -96 171 -73 242 3 12 2 21 -4 21 -5 0 -77 -34 -159 -75 -82 -40 -196 -95
-253 -120 -57 -26 -122 -55 -144 -65 -244 -111 -710 -275 -1030 -364 -119 -33
-150 -41 -355 -90 -119 -28 -353 -74 -414 -82 -23 -2 -84 -11 -136 -19 -278
-42 -506 -58 -805 -58 -160 0 -345 7 -445 18 -66 6 -155 17 -172 20 -9 2 -38
7 -65 11 -26 3 -57 8 -68 10 -11 3 -36 7 -55 10 -19 3 -53 10 -75 16 -22 5
-51 12 -65 15 -83 14 -313 87 -438 139 -77 32 -231 108 -277 137 -181 113
-239 157 -344 260 -380 371 -514 857 -396 1439 10 52 76 273 83 280 7 7 15 1
133 -104 35 -31 75 -67 89 -78 14 -12 39 -34 55 -48 409 -365 1204 -925 1730
-1217 28 -16 64 -36 80 -46 84 -49 291 -159 300 -159 5 1 107 153 225 338 118
185 279 438 358 562 80 124 165 257 189 295 24 39 81 127 126 198 118 184 316
492 514 802 95 149 177 277 183 285 6 8 34 52 63 97 28 46 90 142 136 215 47
73 113 177 148 230 35 54 63 101 63 104 0 4 -30 -22 -67 -58 -166 -161 -393
-332 -613 -462 -52 -31 -102 -61 -110 -66 -51 -32 -354 -176 -450 -213 -237
-93 -512 -169 -713 -197 -39 -6 -83 -12 -97 -15 -93 -14 -183 -19 -390 -20
-259 0 -345 6 -520 35 -30 5 -73 12 -95 16 -22 3 -65 12 -95 19 -30 8 -66 16
-80 18 -104 19 -490 151 -640 219 -148 67 -343 169 -470 246 -124 74 -361 232
-440 292 -107 82 -287 224 -295 234 -6 6 -39 36 -75 66 -126 106 -304 274
-454 429 -56 57 -115 118 -131 135 -17 17 -64 69 -105 116 -41 46 -84 94 -95
106 -11 11 -29 32 -40 45 -11 13 -57 68 -103 122 l-82 98 0 -136z"/>
<path d="M2975 6832 c-90 -49 -217 -118 -280 -152 -27 -15 -81 -44 -120 -65
-38 -21 -117 -64 -175 -95 -58 -32 -145 -79 -195 -105 -198 -106 -229 -125
-215 -126 8 0 24 -2 35 -4 11 -2 54 -9 96 -15 72 -11 75 -13 76 -38 0 -15 3
-90 7 -167 3 -77 9 -205 12 -285 3 -80 7 -172 9 -205 2 -33 3 -76 4 -94 1 -34
2 -34 58 48 l56 82 34 -38 c19 -21 53 -58 75 -83 l40 -45 -5 35 c-9 50 -24
124 -62 299 -2 9 -18 79 -34 156 -44 198 -63 297 -58 301 2 2 48 -3 103 -11
54 -8 119 -17 144 -20 25 -3 65 -8 90 -12 25 -4 48 -6 53 -5 10 3 9 -22 -1
-34 -22 -24 -70 -163 -87 -249 -7 -36 -7 -190 0 -225 25 -134 87 -284 146
-355 162 -195 356 -294 594 -301 221 -7 416 73 572 233 260 268 286 686 61
990 l-39 53 28 11 c107 41 650 246 702 265 36 14 66 26 68 28 5 4 -76 19 -232
41 -60 9 -121 18 -135 20 -44 7 -154 24 -195 30 -23 3 -50 7 -60 9 -11 2 -45
7 -75 11 -30 4 -62 9 -70 10 -8 1 -40 6 -70 11 -30 4 -57 8 -60 9 -3 1 -30 5
-60 9 -30 4 -93 14 -140 21 -47 8 -107 16 -135 20 -27 3 -75 10 -105 15 -30 5
-73 12 -95 15 -22 3 -51 7 -65 10 -44 7 -94 14 -145 20 -27 4 -57 8 -65 10 -8
3 -46 -13 -85 -33z"/>
<path d="M9680 4476 c-43 -12 -119 -87 -448 -443 -51 -56 -106 -107 -123 -113
-26 -11 -50 -9 -167 14 -75 15 -150 29 -167 32 -16 3 -96 18 -176 34 -80 16
-160 32 -177 35 -18 3 -88 16 -155 30 -67 14 -140 27 -162 31 -22 3 -69 12
-104 20 -163 38 -216 16 -359 -148 -39 -44 -24 -63 91 -118 56 -26 145 -68
197 -92 52 -25 174 -83 270 -128 96 -46 226 -107 288 -136 62 -30 116 -54 120
-54 4 0 12 -8 19 -19 10 -16 -11 -46 -174 -242 -102 -123 -199 -239 -215 -258
-34 -38 -19 -36 -318 -46 l-195 -6 -47 -49 c-50 -52 -60 -83 -30 -99 9 -5 117
-47 240 -94 122 -47 233 -92 245 -100 13 -9 52 -80 97 -178 107 -233 153 -323
168 -327 7 -2 35 19 64 47 58 58 53 13 42 355 l-5 189 69 66 c38 36 144 138
236 226 106 101 175 160 188 160 20 0 85 -106 253 -410 43 -79 84 -152 108
-195 70 -122 153 -271 169 -303 19 -35 44 -57 66 -57 19 0 138 132 160 178 27
55 25 113 -7 227 -10 39 -30 113 -44 165 -14 52 -49 181 -76 285 -28 105 -56
206 -61 225 -42 145 -92 340 -94 365 -4 49 -12 39 259 330 72 77 151 162 176
188 63 66 90 123 90 191 2 161 -149 268 -311 222z"/>
</g>
</svg>
